<?xml version="1.0" encoding="UTF-8" standalone="no"?>
<!DOCTYPE svg PUBLIC "-//W3C//DTD SVG 1.1//EN"
 "http://www.w3.org/Graphics/SVG/1.1/DTD/svg11.dtd">
<!-- Generated by graphviz version 12.2.1 (20241206.2353)
 -->
<!-- Pages: 1 -->
<svg width="459pt" height="661pt"
 viewBox="0.00 0.00 458.78 660.95" xmlns="http://www.w3.org/2000/svg" xmlns:xlink="http://www.w3.org/1999/xlink">
<g id="graph0" class="graph" transform="scale(1 1) rotate(0) translate(4 656.95)">
<polygon fill="white" stroke="none" points="-4,4 -4,-656.95 454.78,-656.95 454.78,4 -4,4"/>
<!-- input -->
<g id="node1" class="node input">
<title>input</title>
<ellipse fill="none" stroke="black" cx="106" cy="-634.95" rx="66.19" ry="18"/>
<text text-anchor="middle" x="106" y="-629.9" font-family="Times,serif" font-size="14.00">Creating graph</text>
</g>
<!-- design -->
<g id="node3" class="node manual">
<title>design</title>
<polygon fill="none" stroke="black" points="44.09,-498.95 167.91,-498.95 212,-580.95 0,-580.95 44.09,-498.95"/>
<text text-anchor="middle" x="106" y="-543.15" font-family="Times,serif" font-size="14.00">Designing graph</text>
<text text-anchor="middle" x="106" y="-526.65" font-family="Times,serif" font-size="14.00">in Graphviz</text>
</g>
<!-- input&#45;&gt;design -->
<g id="edge1" class="edge">
<title>input&#45;&gt;design</title>
<path fill="none" stroke="black" d="M106,-616.46C106,-609.51 106,-601.12 106,-592.49"/>
<polygon fill="black" stroke="black" points="109.5,-592.63 106,-582.63 102.5,-592.63 109.5,-592.63"/>
</g>
<!-- colleague -->
<g id="node2" class="node input">
<title>colleague</title>
<ellipse fill="none" stroke="black" cx="280" cy="-539.95" rx="50.03" ry="28.99"/>
<text text-anchor="middle" x="280" y="-543.15" font-family="Times,serif" font-size="14.00">Colleague</text>
<text text-anchor="middle" x="280" y="-526.65" font-family="Times,serif" font-size="14.00">opinion</text>
</g>
<!-- ask -->
<g id="node4" class="node preparation">
<title>ask</title>
<polygon fill="none" stroke="black" points="302.82,-429.48 247.91,-462.95 138.09,-462.95 83.18,-429.48 138.09,-396 247.91,-396 302.82,-429.48"/>
<text text-anchor="middle" x="193" y="-432.68" font-family="Times,serif" font-size="14.00">Waiting for colleague</text>
<text text-anchor="middle" x="193" y="-416.18" font-family="Times,serif" font-size="14.00">suggestion</text>
</g>
<!-- colleague&#45;&gt;ask -->
<g id="edge8" class="edge">
<title>colleague&#45;&gt;ask</title>
<path fill="none" stroke="black" d="M259.38,-513.25C249.57,-501.01 237.59,-486.08 226.52,-472.27"/>
<polygon fill="black" stroke="black" points="229.34,-470.2 220.36,-464.59 223.88,-474.58 229.34,-470.2"/>
</g>
<!-- design&#45;&gt;ask -->
<g id="edge2" class="edge">
<title>design&#45;&gt;ask</title>
<path fill="none" stroke="black" d="M138.4,-498.56C145.35,-489.89 152.71,-480.71 159.7,-471.99"/>
<polygon fill="black" stroke="black" points="162.35,-474.29 165.87,-464.3 156.89,-469.91 162.35,-474.29"/>
</g>
<!-- compile -->
<g id="node5" class="node action">
<title>compile</title>
<polygon fill="none" stroke="black" points="248.5,-360 139.5,-360 139.5,-324 248.5,-324 248.5,-360"/>
<text text-anchor="middle" x="194" y="-336.95" font-family="Times,serif" font-size="14.00">Compiling graph</text>
</g>
<!-- ask&#45;&gt;compile -->
<g id="edge3" class="edge">
<title>ask&#45;&gt;compile</title>
<path fill="none" stroke="black" d="M193.38,-395.67C193.48,-387.76 193.57,-379.37 193.66,-371.67"/>
<polygon fill="black" stroke="black" points="197.16,-371.85 193.78,-361.81 190.16,-371.77 197.16,-371.85"/>
</g>
<!-- graph_result -->
<g id="node6" class="node data">
<title>graph_result</title>
<polygon fill="none" stroke="black" points="250.78,-288 171.59,-288 151.22,-252 230.41,-252 250.78,-288"/>
<text text-anchor="middle" x="201" y="-264.95" font-family="Times,serif" font-size="14.00">Graph</text>
</g>
<!-- compile&#45;&gt;graph_result -->
<g id="edge4" class="edge">
<title>compile&#45;&gt;graph_result</title>
<path fill="none" stroke="black" d="M195.73,-323.7C196.46,-316.41 197.33,-307.73 198.15,-299.54"/>
<polygon fill="black" stroke="black" points="201.63,-299.91 199.14,-289.61 194.66,-299.21 201.63,-299.91"/>
</g>
<!-- is_good -->
<g id="node7" class="node decision">
<title>is_good</title>
<polygon fill="none" stroke="black" points="205,-216 111.39,-198 205,-180 298.61,-198 205,-216"/>
<text text-anchor="middle" x="205" y="-192.95" font-family="Times,serif" font-size="14.00">Is graph good?</text>
</g>
<!-- graph_result&#45;&gt;is_good -->
<g id="edge5" class="edge">
<title>graph_result&#45;&gt;is_good</title>
<path fill="none" stroke="black" d="M201.99,-251.7C202.41,-244.41 202.9,-235.73 203.37,-227.54"/>
<polygon fill="black" stroke="black" points="206.86,-227.8 203.94,-217.62 199.87,-227.4 206.86,-227.8"/>
</g>
<!-- is_good&#45;&gt;ask -->
<g id="edge11" class="edge">
<title>is_good:e&#45;&gt;ask:e</title>
<path fill="none" stroke="black" d="M301.94,-198C400.91,-198 407.1,-412.18 315.86,-428.49"/>
<polygon fill="black" stroke="black" points="315.73,-424.99 306.07,-429.35 316.34,-431.97 315.73,-424.99"/>
<text text-anchor="middle" x="373.65" y="-315.54" font-family="Times,serif" font-size="14.00">no</text>
</g>
<!-- save -->
<g id="node8" class="node action">
<title>save</title>
<polygon fill="none" stroke="black" points="243.38,-126 166.62,-126 166.62,-90 243.38,-90 243.38,-126"/>
<text text-anchor="middle" x="205" y="-102.95" font-family="Times,serif" font-size="14.00">Save graph</text>
</g>
<!-- is_good&#45;&gt;save -->
<g id="edge6" class="edge">
<title>is_good&#45;&gt;save</title>
<path fill="none" stroke="black" d="M205,-179.61C205,-167.68 205,-151.57 205,-137.74"/>
<polygon fill="black" stroke="black" points="208.5,-137.86 205,-127.86 201.5,-137.86 208.5,-137.86"/>
</g>
<!-- output -->
<g id="node9" class="node output">
<title>output</title>
<ellipse fill="none" stroke="black" cx="205" cy="-18" rx="66.19" ry="18"/>
<text text-anchor="middle" x="205" y="-12.95" font-family="Times,serif" font-size="14.00">Graph is done!</text>
</g>
<!-- save&#45;&gt;output -->
<g id="edge7" class="edge">
<title>save&#45;&gt;output</title>
<path fill="none" stroke="black" d="M205,-89.61C205,-77.68 205,-61.57 205,-47.74"/>
<polygon fill="black" stroke="black" points="208.5,-47.86 205,-37.86 201.5,-47.86 208.5,-47.86"/>
</g>
<!-- Storage -->
<g id="node10" class="node database Storage">
<title>Storage</title>
<path fill="lightgrey" stroke="black" d="M333,-137.45C333,-141.07 316.86,-144 297,-144 277.14,-144 261,-141.07 261,-137.45 261,-137.45 261,-78.55 261,-78.55 261,-74.93 277.14,-72 297,-72 316.86,-72 333,-74.93 333,-78.55 333,-78.55 333,-137.45 333,-137.45"/>
<path fill="none" stroke="black" d="M333,-137.45C333,-133.84 316.86,-130.91 297,-130.91 277.14,-130.91 261,-133.84 261,-137.45"/>
<text text-anchor="middle" x="297" y="-102.95" font-family="Times,serif" font-size="14.00">Storage</text>
</g>
<!-- save&#45;&gt;Storage -->
<g id="edge9" class="edge">
<title>save&#45;&gt;Storage</title>
<path fill="none" stroke="black" d="M243.81,-108C245.68,-108 247.54,-108 249.4,-108"/>
<polygon fill="black" stroke="black" points="249.34,-111.5 259.34,-108 249.34,-104.5 249.34,-111.5"/>
</g>
<!-- stored_data -->
<g id="node11" class="node dataStorage">
<title>stored_data</title>
<polygon fill="lightgrey" stroke="black" points="450.78,-126 371.59,-126 351.22,-90 430.41,-90 450.78,-126"/>
<text text-anchor="middle" x="401" y="-102.95" font-family="Times,serif" font-size="14.00">Graph</text>
</g>
<!-- Storage&#45;&gt;stored_data -->
<g id="edge10" class="edge">
<title>Storage&#45;&gt;stored_data</title>
<path fill="none" stroke="black" d="M333.16,-108C338.66,-108 344.17,-108 349.68,-108"/>
<polygon fill="black" stroke="black" points="349.47,-111.5 359.47,-108 349.47,-104.5 349.47,-111.5"/>
</g>
</g>
</svg>
