<?xml version="1.0" encoding="UTF-8" standalone="no"?>
<!DOCTYPE svg PUBLIC "-//W3C//DTD SVG 1.1//EN"
 "http://www.w3.org/Graphics/SVG/1.1/DTD/svg11.dtd">
<!-- Generated by graphviz version 12.2.1 (20241206.2353)
 -->
<!-- Pages: 1 -->
<svg width="107pt" height="116pt"
 viewBox="0.00 0.00 106.50 116.00" xmlns="http://www.w3.org/2000/svg" xmlns:xlink="http://www.w3.org/1999/xlink">
<g id="graph0" class="graph" transform="scale(1 1) rotate(0) translate(4 112)">
<polygon fill="white" stroke="none" points="-4,4 -4,-112 102.5,-112 102.5,4 -4,4"/>
<!-- default_action -->
<g id="node1" class="node action">
<title>default_action</title>
<polygon fill="none" stroke="black" points="97.38,-108 1.13,-108 1.13,-72 97.38,-72 97.38,-108"/>
<text text-anchor="middle" x="49.25" y="-84.95" font-family="Times,serif" font-size="14.00">Default Action</text>
</g>
<!-- custom_action -->
<g id="node2" class="node action">
<title>custom_action</title>
<path fill="none" stroke="red" d="M86.5,-36C86.5,-36 12,-36 12,-36 6,-36 0,-30 0,-24 0,-24 0,-12 0,-12 0,-6 6,0 12,0 12,0 86.5,0 86.5,0 92.5,0 98.5,-6 98.5,-12 98.5,-12 98.5,-24 98.5,-24 98.5,-30 92.5,-36 86.5,-36"/>
<text text-anchor="middle" x="49.25" y="-12.95" font-family="Times,serif" font-size="14.00">Custom Action</text>
</g>
<!-- default_action&#45;&gt;custom_action -->
<g id="edge1" class="edge">
<title>default_action&#45;&gt;custom_action</title>
<path fill="none" stroke="black" d="M43.33,-71.7C42.58,-64.41 42.34,-55.73 42.6,-47.54"/>
<polygon fill="black" stroke="black" points="46.09,-47.82 43.26,-37.61 39.11,-47.36 46.09,-47.82"/>
</g>
<!-- custom_action&#45;&gt;default_action -->
<g id="edge2" class="edge">
<title>custom_action&#45;&gt;default_action</title>
<path fill="none" stroke="black" d="M55.15,-36.1C55.91,-43.37 56.16,-52.04 55.9,-60.24"/>
<polygon fill="black" stroke="black" points="52.41,-59.98 55.26,-70.19 59.4,-60.43 52.41,-59.98"/>
</g>
</g>
</svg>
