<?xml version="1.0" encoding="UTF-8" standalone="no"?>
<!DOCTYPE svg PUBLIC "-//W3C//DTD SVG 1.1//EN"
 "http://www.w3.org/Graphics/SVG/1.1/DTD/svg11.dtd">
<!-- Generated by graphviz version 12.2.1 (20241206.2353)
 -->
<!-- Pages: 1 -->
<svg width="180pt" height="311pt"
 viewBox="0.00 0.00 179.50 311.00" xmlns="http://www.w3.org/2000/svg" xmlns:xlink="http://www.w3.org/1999/xlink">
<g id="graph0" class="graph" transform="scale(1 1) rotate(0) translate(4 307)">
<polygon fill="white" stroke="none" points="-4,4 -4,-307 175.5,-307 175.5,4 -4,4"/>
<!-- InputAA38B3AE_980F_4863_916C_EF211E6303C8 -->
<g id="node1" class="node input">
<title>InputAA38B3AE_980F_4863_916C_EF211E6303C8</title>
<ellipse fill="none" stroke="black" cx="85.75" cy="-285" rx="30.37" ry="18"/>
<text text-anchor="middle" x="85.75" y="-279.95" font-family="Times,serif" font-size="14.00">Input</text>
</g>
<!-- Manual87B0D718_91C8_4E37_8422_C3A7D1BEFBA2 -->
<g id="node2" class="node manual">
<title>Manual87B0D718_91C8_4E37_8422_C3A7D1BEFBA2</title>
<polygon fill="none" stroke="black" points="35.67,-149 135.83,-149 171.5,-231 0,-231 35.67,-149"/>
<text text-anchor="middle" x="85.75" y="-193.2" font-family="Times,serif" font-size="14.00">Unimportant</text>
<text text-anchor="middle" x="85.75" y="-176.7" font-family="Times,serif" font-size="14.00">work</text>
</g>
<!-- InputAA38B3AE_980F_4863_916C_EF211E6303C8&#45;&gt;Manual87B0D718_91C8_4E37_8422_C3A7D1BEFBA2 -->
<g id="edge1" class="edge">
<title>InputAA38B3AE_980F_4863_916C_EF211E6303C8&#45;&gt;Manual87B0D718_91C8_4E37_8422_C3A7D1BEFBA2</title>
<path fill="none" stroke="black" d="M85.75,-266.51C85.75,-259.56 85.75,-251.17 85.75,-242.54"/>
<polygon fill="black" stroke="black" points="89.25,-242.68 85.75,-232.68 82.25,-242.68 89.25,-242.68"/>
</g>
<!-- ActionF6768BD3_8991_49F5_AE00_E18031BD5D2C -->
<g id="node3" class="node action">
<title>ActionF6768BD3_8991_49F5_AE00_E18031BD5D2C</title>
<polygon fill="none" stroke="black" points="112.75,-113 58.75,-113 58.75,-72 112.75,-72 112.75,-113"/>
<text text-anchor="middle" x="85.75" y="-95.7" font-family="Times,serif" font-size="14.00">Quick</text>
<text text-anchor="middle" x="85.75" y="-79.2" font-family="Times,serif" font-size="14.00">Action</text>
</g>
<!-- Manual87B0D718_91C8_4E37_8422_C3A7D1BEFBA2&#45;&gt;ActionF6768BD3_8991_49F5_AE00_E18031BD5D2C -->
<g id="edge2" class="edge">
<title>Manual87B0D718_91C8_4E37_8422_C3A7D1BEFBA2&#45;&gt;ActionF6768BD3_8991_49F5_AE00_E18031BD5D2C</title>
<path fill="none" stroke="black" d="M85.75,-148.78C85.75,-140.75 85.75,-132.43 85.75,-124.76"/>
<polygon fill="black" stroke="black" points="89.25,-124.88 85.75,-114.88 82.25,-124.88 89.25,-124.88"/>
</g>
<!-- Output847F2CD7_3BD5_4145_A33F_A21DBFE00682 -->
<g id="node4" class="node output">
<title>Output847F2CD7_3BD5_4145_A33F_A21DBFE00682</title>
<ellipse fill="none" stroke="black" cx="85.75" cy="-18" rx="36.51" ry="18"/>
<text text-anchor="middle" x="85.75" y="-12.95" font-family="Times,serif" font-size="14.00">Output</text>
</g>
<!-- ActionF6768BD3_8991_49F5_AE00_E18031BD5D2C&#45;&gt;Output847F2CD7_3BD5_4145_A33F_A21DBFE00682 -->
<g id="edge3" class="edge">
<title>ActionF6768BD3_8991_49F5_AE00_E18031BD5D2C&#45;&gt;Output847F2CD7_3BD5_4145_A33F_A21DBFE00682</title>
<path fill="none" stroke="black" d="M85.75,-71.69C85.75,-64.25 85.75,-55.64 85.75,-47.57"/>
<polygon fill="black" stroke="black" points="89.25,-47.83 85.75,-37.83 82.25,-47.83 89.25,-47.83"/>
</g>
</g>
</svg>
